<mxfile host="app.diagrams.net" modified="2023-12-09T12:08:12.253Z" agent="Mozilla/5.0 (Windows NT 10.0; Win64; x64; rv:120.0) Gecko/20100101 Firefox/120.0" etag="XImIFtkZKr3-Y3_sYWze" version="22.1.7" type="github">
  <diagram id="C5RBs43oDa-KdzZeNtuy" name="Page-1">
    <mxGraphModel dx="1221" dy="673" grid="0" gridSize="10" guides="1" tooltips="1" connect="1" arrows="1" fold="1" page="1" pageScale="1" pageWidth="827" pageHeight="1169" math="0" shadow="0">
      <root>
        <mxCell id="WIyWlLk6GJQsqaUBKTNV-0" />
        <mxCell id="WIyWlLk6GJQsqaUBKTNV-1" parent="WIyWlLk6GJQsqaUBKTNV-0" />
        <mxCell id="EkLO7HhcVaUaycBX5-_v-0" value="&lt;div&gt;Subject&lt;/div&gt;" style="swimlane;fontStyle=1;align=center;verticalAlign=top;childLayout=stackLayout;horizontal=1;startSize=26;horizontalStack=0;resizeParent=1;resizeParentMax=0;resizeLast=0;collapsible=1;marginBottom=0;whiteSpace=wrap;html=1;" vertex="1" parent="WIyWlLk6GJQsqaUBKTNV-1">
          <mxGeometry x="533" y="78" width="240" height="130" as="geometry">
            <mxRectangle x="530" y="76" width="78" height="26" as="alternateBounds" />
          </mxGeometry>
        </mxCell>
        <mxCell id="EkLO7HhcVaUaycBX5-_v-1" value="-List&amp;lt;Observer&amp;gt; observers" style="text;strokeColor=none;fillColor=none;align=left;verticalAlign=top;spacingLeft=4;spacingRight=4;overflow=hidden;rotatable=0;points=[[0,0.5],[1,0.5]];portConstraint=eastwest;whiteSpace=wrap;html=1;" vertex="1" parent="EkLO7HhcVaUaycBX5-_v-0">
          <mxGeometry y="26" width="240" height="26" as="geometry" />
        </mxCell>
        <mxCell id="EkLO7HhcVaUaycBX5-_v-2" value="" style="line;strokeWidth=1;fillColor=none;align=left;verticalAlign=middle;spacingTop=-1;spacingLeft=3;spacingRight=3;rotatable=0;labelPosition=right;points=[];portConstraint=eastwest;strokeColor=inherit;" vertex="1" parent="EkLO7HhcVaUaycBX5-_v-0">
          <mxGeometry y="52" width="240" height="8" as="geometry" />
        </mxCell>
        <mxCell id="EkLO7HhcVaUaycBX5-_v-3" value="&lt;div&gt;+registerObserver(Observer observer)&lt;/div&gt;&lt;div&gt;+unregisterObserver(Observer observer)&lt;/div&gt;&lt;div&gt;-notifyObservers()&lt;br&gt;&lt;/div&gt;" style="text;strokeColor=none;fillColor=none;align=left;verticalAlign=top;spacingLeft=4;spacingRight=4;overflow=hidden;rotatable=0;points=[[0,0.5],[1,0.5]];portConstraint=eastwest;whiteSpace=wrap;html=1;" vertex="1" parent="EkLO7HhcVaUaycBX5-_v-0">
          <mxGeometry y="60" width="240" height="70" as="geometry" />
        </mxCell>
        <mxCell id="EkLO7HhcVaUaycBX5-_v-5" value="&lt;div&gt;for(Observer observer: observers){&lt;/div&gt;&lt;div align=&quot;left&quot;&gt;&lt;span style=&quot;white-space: pre;&quot;&gt;&#x9;&lt;/span&gt;observer.notify();&lt;/div&gt;&lt;div align=&quot;left&quot;&gt;}&lt;br&gt;&lt;/div&gt;" style="shape=note;whiteSpace=wrap;html=1;backgroundOutline=1;darkOpacity=0.05;size=19;" vertex="1" parent="WIyWlLk6GJQsqaUBKTNV-1">
          <mxGeometry x="529" y="255" width="245" height="71" as="geometry" />
        </mxCell>
        <mxCell id="EkLO7HhcVaUaycBX5-_v-6" value="" style="endArrow=none;dashed=1;html=1;dashPattern=1 3;strokeWidth=2;rounded=0;exitX=0;exitY=0;exitDx=113;exitDy=0;exitPerimeter=0;entryX=0.2;entryY=0.757;entryDx=0;entryDy=0;entryPerimeter=0;" edge="1" parent="WIyWlLk6GJQsqaUBKTNV-1" source="EkLO7HhcVaUaycBX5-_v-5" target="EkLO7HhcVaUaycBX5-_v-3">
          <mxGeometry width="50" height="50" relative="1" as="geometry">
            <mxPoint x="409" y="262" as="sourcePoint" />
            <mxPoint x="459" y="212" as="targetPoint" />
          </mxGeometry>
        </mxCell>
        <mxCell id="EkLO7HhcVaUaycBX5-_v-7" value="&lt;p style=&quot;margin:0px;margin-top:4px;text-align:center;&quot;&gt;&lt;i&gt;&amp;lt;&amp;lt;Interface&amp;gt;&amp;gt;&lt;/i&gt;&lt;/p&gt;&lt;p style=&quot;margin:0px;margin-top:4px;text-align:center;&quot;&gt;&lt;b&gt;Observer&lt;/b&gt;&lt;br&gt;&lt;/p&gt;&lt;hr size=&quot;1&quot;&gt;+notify()" style="verticalAlign=top;align=left;overflow=fill;fontSize=12;fontFamily=Helvetica;html=1;whiteSpace=wrap;" vertex="1" parent="WIyWlLk6GJQsqaUBKTNV-1">
          <mxGeometry x="225" y="78" width="190" height="74" as="geometry" />
        </mxCell>
        <mxCell id="EkLO7HhcVaUaycBX5-_v-10" value="" style="endArrow=diamondThin;endFill=1;endSize=24;html=1;rounded=0;entryX=0;entryY=0.5;entryDx=0;entryDy=0;exitX=1;exitY=0.5;exitDx=0;exitDy=0;" edge="1" parent="WIyWlLk6GJQsqaUBKTNV-1" source="EkLO7HhcVaUaycBX5-_v-7" target="EkLO7HhcVaUaycBX5-_v-1">
          <mxGeometry width="160" relative="1" as="geometry">
            <mxPoint x="333.5" y="116" as="sourcePoint" />
            <mxPoint x="493.5" y="116" as="targetPoint" />
          </mxGeometry>
        </mxCell>
        <mxCell id="EkLO7HhcVaUaycBX5-_v-11" value="ConcreteObserverA" style="swimlane;fontStyle=0;childLayout=stackLayout;horizontal=1;startSize=26;fillColor=none;horizontalStack=0;resizeParent=1;resizeParentMax=0;resizeLast=0;collapsible=1;marginBottom=0;whiteSpace=wrap;html=1;" vertex="1" parent="WIyWlLk6GJQsqaUBKTNV-1">
          <mxGeometry x="131" y="235" width="140" height="52" as="geometry" />
        </mxCell>
        <mxCell id="EkLO7HhcVaUaycBX5-_v-12" value="+notify()" style="text;strokeColor=none;fillColor=none;align=left;verticalAlign=top;spacingLeft=4;spacingRight=4;overflow=hidden;rotatable=0;points=[[0,0.5],[1,0.5]];portConstraint=eastwest;whiteSpace=wrap;html=1;" vertex="1" parent="EkLO7HhcVaUaycBX5-_v-11">
          <mxGeometry y="26" width="140" height="26" as="geometry" />
        </mxCell>
        <mxCell id="EkLO7HhcVaUaycBX5-_v-15" value="ConcreteObserverB" style="swimlane;fontStyle=0;childLayout=stackLayout;horizontal=1;startSize=26;fillColor=none;horizontalStack=0;resizeParent=1;resizeParentMax=0;resizeLast=0;collapsible=1;marginBottom=0;whiteSpace=wrap;html=1;" vertex="1" parent="WIyWlLk6GJQsqaUBKTNV-1">
          <mxGeometry x="327" y="235" width="140" height="52" as="geometry" />
        </mxCell>
        <mxCell id="EkLO7HhcVaUaycBX5-_v-16" value="+notify()" style="text;strokeColor=none;fillColor=none;align=left;verticalAlign=top;spacingLeft=4;spacingRight=4;overflow=hidden;rotatable=0;points=[[0,0.5],[1,0.5]];portConstraint=eastwest;whiteSpace=wrap;html=1;" vertex="1" parent="EkLO7HhcVaUaycBX5-_v-15">
          <mxGeometry y="26" width="140" height="26" as="geometry" />
        </mxCell>
        <mxCell id="EkLO7HhcVaUaycBX5-_v-17" value="" style="endArrow=block;dashed=1;endFill=0;endSize=12;html=1;rounded=0;exitX=0.5;exitY=0;exitDx=0;exitDy=0;entryX=0.5;entryY=1;entryDx=0;entryDy=0;" edge="1" parent="WIyWlLk6GJQsqaUBKTNV-1" source="EkLO7HhcVaUaycBX5-_v-11" target="EkLO7HhcVaUaycBX5-_v-7">
          <mxGeometry width="160" relative="1" as="geometry">
            <mxPoint x="387" y="215" as="sourcePoint" />
            <mxPoint x="547" y="215" as="targetPoint" />
            <Array as="points">
              <mxPoint x="201" y="192" />
              <mxPoint x="320" y="192" />
            </Array>
          </mxGeometry>
        </mxCell>
        <mxCell id="EkLO7HhcVaUaycBX5-_v-18" value="" style="endArrow=block;dashed=1;endFill=0;endSize=12;html=1;rounded=0;exitX=0.5;exitY=0;exitDx=0;exitDy=0;" edge="1" parent="WIyWlLk6GJQsqaUBKTNV-1" source="EkLO7HhcVaUaycBX5-_v-15">
          <mxGeometry width="160" relative="1" as="geometry">
            <mxPoint x="211" y="245" as="sourcePoint" />
            <mxPoint x="319" y="153" as="targetPoint" />
            <Array as="points">
              <mxPoint x="397" y="192" />
              <mxPoint x="319" y="192" />
            </Array>
          </mxGeometry>
        </mxCell>
      </root>
    </mxGraphModel>
  </diagram>
</mxfile>
